<svg width="32" height="32" viewBox="0 0 32 32" fill="none" xmlns="http://www.w3.org/2000/svg">
<path d="M5.33333 4C4.97971 4 4.64057 4.14048 4.39052 4.39052C4.14048 4.64057 4 4.97971 4 5.33333V26.6667C4 27.0203 4.14048 27.3594 4.39052 27.6095C4.64057 27.8595 4.97971 28 5.33333 28H18.6667C19.0203 28 19.3594 27.8595 19.6095 27.6095C19.8595 27.3594 20 27.0203 20 26.6667V20.396L21.3333 26.6667C21.4069 27.0125 21.6149 27.3149 21.9114 27.5074C22.208 27.7 22.5688 27.7668 22.9147 27.6933L28.1307 26.584C28.4765 26.5104 28.7789 26.3025 28.9714 26.0059C29.164 25.7094 29.2308 25.3485 29.1573 25.0027L25.2773 6.744C25.2037 6.39818 24.9958 6.09575 24.6993 5.90322C24.4027 5.71069 24.0418 5.64383 23.696 5.71733L19.9893 6.504C19.9496 6.1811 19.7933 5.88385 19.5497 5.66824C19.306 5.45262 18.992 5.33351 18.6667 5.33333H13.3333C13.3333 4.97971 13.1929 4.64057 12.9428 4.39052C12.6928 4.14048 12.3536 4 12 4H5.33333ZM13.3333 8H17.3333V18.6667H13.3333V8ZM13.3333 25.3333V21.3333H17.3333V25.3333H13.3333ZM10.6667 6.66667V20H6.66667V6.66667H10.6667ZM10.6667 22.6667V25.3333H6.66667V22.6667H10.6667ZM23.1093 22.2L25.7173 21.6453L26.272 24.2533L23.664 24.808L23.1093 22.2ZM22.5547 19.5907L20.3373 9.15733L22.9453 8.60267L25.164 19.0373L22.5547 19.5907Z" fill="black"/>
</svg>
