<svg width="24" height="26" viewBox="0 0 24 26" fill="none" xmlns="http://www.w3.org/2000/svg">
<mask id="path-1-outside-1_12_87" maskUnits="userSpaceOnUse" x="0" y="0" width="24" height="26" fill="black">
<rect fill="white" width="24" height="26"/>
<path d="M14.2 25.4444L14.1149 22.2314H12C8.94249 22.2314 6.34502 21.2 4.2076 19.1373C2.07018 17.0745 1.00098 14.5674 1 11.6157C0.999023 8.66407 2.06822 6.15735 4.2076 4.09554C6.34698 2.03373 8.94445 1.00189 12 1C13.5292 1 14.9607 1.27648 16.2944 1.82944C17.6281 2.38146 18.7931 3.13824 19.7895 4.09979C20.7858 5.06134 21.57 6.18519 22.142 7.47134C22.714 8.75938 23 10.1408 23 11.6157C23 13.0585 22.7805 14.4442 22.3415 15.7728C21.9024 17.1014 21.2952 18.3569 20.5199 19.5393C19.7445 20.7216 18.8156 21.8115 17.7332 22.8089C16.6508 23.8063 15.4731 24.6844 14.2 25.443M15.6667 22.7268C17.4022 21.3114 18.8141 19.6544 19.9024 17.7558C20.9907 15.8573 21.5343 13.8106 21.5333 11.6157C21.5333 9.04435 20.6103 6.86837 18.7643 5.08776C16.9182 3.30715 14.6635 2.41637 12 2.41543C9.33653 2.41448 7.08178 3.30526 5.23573 5.08776C3.38969 6.87025 2.46667 9.04624 2.46667 11.6157C2.46667 14.1852 3.38969 16.3616 5.23573 18.1451C7.08178 19.9285 9.33653 20.8188 12 20.816H15.6667V22.7268ZM12.0484 18.7933C12.3515 18.7933 12.6072 18.6929 12.8155 18.4919C13.0237 18.2909 13.1279 18.0441 13.1279 17.7516C13.1279 17.4591 13.0237 17.2123 12.8155 17.0113C12.6072 16.8103 12.3515 16.7094 12.0484 16.7084C11.7453 16.7084 11.4896 16.8094 11.2813 17.0113C11.0721 17.2123 10.9675 17.4591 10.9675 17.7516C10.9675 18.0441 11.0716 18.2909 11.2799 18.4919C11.4891 18.6929 11.7453 18.7933 12.0484 18.7933ZM11.4075 14.6532H12.7055C12.7426 14.0729 12.858 13.6138 13.0516 13.276C13.2452 12.9391 13.7048 12.4201 14.4303 11.719C14.8527 11.3133 15.1871 10.8986 15.4335 10.4749C15.6789 10.0521 15.8016 9.56712 15.8016 9.01982C15.8016 7.99788 15.4364 7.19533 14.706 6.61217C13.9756 6.02902 13.0922 5.73697 12.0557 5.73602C11.1493 5.73602 10.3818 5.97523 9.75307 6.45365C9.1224 6.93206 8.6604 7.50248 8.36707 8.1649L9.57413 8.61642C9.77164 8.19745 10.0601 7.81576 10.4395 7.47134C10.8198 7.12786 11.3586 6.95612 12.0557 6.95612C12.8849 6.95612 13.4975 7.17363 13.8935 7.60863C14.2895 8.04459 14.4875 8.52017 14.4875 9.03539C14.4875 9.50908 14.3604 9.90965 14.1061 10.2371C13.8529 10.5645 13.5268 10.9207 13.1279 11.3057C12.4229 11.9049 11.9599 12.4428 11.7389 12.9193C11.518 13.3958 11.4075 13.9738 11.4075 14.6532Z"/>
</mask>
<path d="M14.2 25.4444L14.1149 22.2314H12C8.94249 22.2314 6.34502 21.2 4.2076 19.1373C2.07018 17.0745 1.00098 14.5674 1 11.6157C0.999023 8.66407 2.06822 6.15735 4.2076 4.09554C6.34698 2.03373 8.94445 1.00189 12 1C13.5292 1 14.9607 1.27648 16.2944 1.82944C17.6281 2.38146 18.7931 3.13824 19.7895 4.09979C20.7858 5.06134 21.57 6.18519 22.142 7.47134C22.714 8.75938 23 10.1408 23 11.6157C23 13.0585 22.7805 14.4442 22.3415 15.7728C21.9024 17.1014 21.2952 18.3569 20.5199 19.5393C19.7445 20.7216 18.8156 21.8115 17.7332 22.8089C16.6508 23.8063 15.4731 24.6844 14.2 25.443M15.6667 22.7268C17.4022 21.3114 18.8141 19.6544 19.9024 17.7558C20.9907 15.8573 21.5343 13.8106 21.5333 11.6157C21.5333 9.04435 20.6103 6.86837 18.7643 5.08776C16.9182 3.30715 14.6635 2.41637 12 2.41543C9.33653 2.41448 7.08178 3.30526 5.23573 5.08776C3.38969 6.87025 2.46667 9.04624 2.46667 11.6157C2.46667 14.1852 3.38969 16.3616 5.23573 18.1451C7.08178 19.9285 9.33653 20.8188 12 20.816H15.6667V22.7268ZM12.0484 18.7933C12.3515 18.7933 12.6072 18.6929 12.8155 18.4919C13.0237 18.2909 13.1279 18.0441 13.1279 17.7516C13.1279 17.4591 13.0237 17.2123 12.8155 17.0113C12.6072 16.8103 12.3515 16.7094 12.0484 16.7084C11.7453 16.7084 11.4896 16.8094 11.2813 17.0113C11.0721 17.2123 10.9675 17.4591 10.9675 17.7516C10.9675 18.0441 11.0716 18.2909 11.2799 18.4919C11.4891 18.6929 11.7453 18.7933 12.0484 18.7933ZM11.4075 14.6532H12.7055C12.7426 14.0729 12.858 13.6138 13.0516 13.276C13.2452 12.9391 13.7048 12.4201 14.4303 11.719C14.8527 11.3133 15.1871 10.8986 15.4335 10.4749C15.6789 10.0521 15.8016 9.56712 15.8016 9.01982C15.8016 7.99788 15.4364 7.19533 14.706 6.61217C13.9756 6.02902 13.0922 5.73697 12.0557 5.73602C11.1493 5.73602 10.3818 5.97523 9.75307 6.45365C9.1224 6.93206 8.6604 7.50248 8.36707 8.1649L9.57413 8.61642C9.77164 8.19745 10.0601 7.81576 10.4395 7.47134C10.8198 7.12786 11.3586 6.95612 12.0557 6.95612C12.8849 6.95612 13.4975 7.17363 13.8935 7.60863C14.2895 8.04459 14.4875 8.52017 14.4875 9.03539C14.4875 9.50908 14.3604 9.90965 14.1061 10.2371C13.8529 10.5645 13.5268 10.9207 13.1279 11.3057C12.4229 11.9049 11.9599 12.4428 11.7389 12.9193C11.518 13.3958 11.4075 13.9738 11.4075 14.6532Z" fill="black"/>
<path d="M14.1149 22.2314L14.3149 22.2261L14.3097 22.0314H14.1149V22.2314ZM12 1V0.8L11.9999 0.8L12 1ZM16.2944 1.82944L16.2178 2.01419L16.2179 2.01424L16.2944 1.82944ZM22.142 7.47134L22.3248 7.39017L22.3247 7.39007L22.142 7.47134ZM15.6667 22.7268H15.4667V23.148L15.7931 22.8818L15.6667 22.7268ZM21.5333 11.6157H21.3333V11.6158L21.5333 11.6157ZM12 20.816V20.616H11.9998L12 20.816ZM15.6667 20.816H15.8667V20.616H15.6667V20.816ZM12.8155 17.0113L12.9544 16.8674L12.8155 17.0113ZM12.0484 16.7084L12.049 16.5084H12.0484V16.7084ZM11.2813 17.0113L11.4199 17.1556L11.4206 17.1549L11.2813 17.0113ZM11.2799 18.4919L11.141 18.6358L11.1413 18.6361L11.2799 18.4919ZM11.4075 14.6532H11.2075V14.8532H11.4075V14.6532ZM12.7055 14.6532V14.8532H12.8931L12.9051 14.666L12.7055 14.6532ZM13.0516 13.276L12.8782 13.1764L12.8781 13.1766L13.0516 13.276ZM14.4303 11.719L14.2917 11.5748L14.2913 11.5752L14.4303 11.719ZM15.4335 10.4749L15.6064 10.5754L15.6064 10.5753L15.4335 10.4749ZM12.0557 5.73602L12.0559 5.53602H12.0557V5.73602ZM9.75307 6.45365L9.87394 6.61299L9.87418 6.61281L9.75307 6.45365ZM8.36707 8.1649L8.1842 8.08392L8.0983 8.2779L8.297 8.35222L8.36707 8.1649ZM9.57413 8.61642L9.50406 8.80374L9.67652 8.86825L9.75504 8.7017L9.57413 8.61642ZM10.4395 7.47134L10.3054 7.3229L10.305 7.32326L10.4395 7.47134ZM13.8935 7.60863L14.0415 7.47416L14.0414 7.474L13.8935 7.60863ZM14.1061 10.2371L13.9482 10.1144L13.9479 10.1147L14.1061 10.2371ZM13.1279 11.3057L13.2577 11.4584L13.2668 11.4496L13.1279 11.3057ZM14.3999 25.4392L14.3149 22.2261L13.915 22.2367L14.0001 25.4497L14.3999 25.4392ZM14.1149 22.0314H12V22.4314H14.1149V22.0314ZM12 22.0314C8.99261 22.0314 6.44543 21.019 4.34649 18.9934L4.06872 19.2812C6.24462 21.3811 8.89237 22.4314 12 22.4314V22.0314ZM4.34649 18.9934C2.24782 16.968 1.20096 14.5126 1.2 11.6156L0.800001 11.6158C0.800997 14.6221 1.89254 17.1811 4.06872 19.2812L4.34649 18.9934ZM1.2 11.6156C1.19904 8.71876 2.24585 6.26393 4.34639 4.23955L4.06881 3.95153C1.8906 6.05077 0.799005 8.60939 0.800001 11.6158L1.2 11.6156ZM4.34639 4.23955C6.44736 2.21475 8.99466 1.20186 12.0001 1.2L11.9999 0.8C8.89423 0.801918 6.24659 1.85272 4.06881 3.95153L4.34639 4.23955ZM12 1.2C13.5045 1.2 14.9098 1.47189 16.2178 2.01419L16.371 1.64469C15.0116 1.08107 13.554 0.8 12 0.8V1.2ZM16.2179 2.01424C17.5294 2.55707 18.673 3.30031 19.6506 4.2437L19.9284 3.95588C18.9132 2.97617 17.7268 2.20584 16.3709 1.64464L16.2179 2.01424ZM19.6506 4.2437C20.6281 5.18708 21.3975 6.28957 21.9593 7.55261L22.3247 7.39007C21.7425 6.08081 20.9435 4.93559 19.9284 3.95588L19.6506 4.2437ZM21.9592 7.55251C22.5193 8.81381 22.8 10.1675 22.8 11.6157H23.2C23.2 10.1142 22.9087 8.70495 22.3248 7.39017L21.9592 7.55251ZM22.8 11.6157C22.8 13.0379 22.5837 14.4023 22.1516 15.7101L22.5314 15.8356C22.9773 14.4861 23.2 13.0792 23.2 11.6157H22.8ZM22.1516 15.7101C21.7181 17.022 21.1185 18.2617 20.3526 19.4296L20.6871 19.649C21.472 18.4522 22.0868 17.1809 22.5314 15.8356L22.1516 15.7101ZM20.3526 19.4296C19.5866 20.5977 18.6685 21.6751 17.5977 22.6618L17.8687 22.956C18.9627 21.9479 19.9024 20.8456 20.6871 19.649L20.3526 19.4296ZM17.5977 22.6618C16.5255 23.6498 15.3589 24.5196 14.0976 25.2712L14.3024 25.6148C15.5872 24.8491 16.7761 23.9628 17.8687 22.956L17.5977 22.6618ZM15.7931 22.8818C17.5471 21.4513 18.9752 19.7756 20.0759 17.8553L19.7289 17.6564C18.6531 19.5332 17.2573 21.1715 15.5403 22.5718L15.7931 22.8818ZM20.0759 17.8553C21.1816 15.9263 21.7343 13.8453 21.7333 11.6156L21.3333 11.6158C21.3343 13.7758 20.7997 15.7882 19.7289 17.6564L20.0759 17.8553ZM21.7333 11.6157C21.7333 8.99021 20.7883 6.76222 18.9031 4.94381L18.6254 5.23171C20.4323 6.97451 21.3333 9.09849 21.3333 11.6157H21.7333ZM18.9031 4.94381C17.0182 3.12575 14.7131 2.21639 12.0001 2.21543L11.9999 2.61543C14.6138 2.61635 16.8182 3.48854 18.6254 5.23171L18.9031 4.94381ZM12.0001 2.21543C9.28693 2.21447 6.9817 3.12388 5.09681 4.94388L5.37466 5.23163C7.18186 3.48664 9.38614 2.6145 11.9999 2.61543L12.0001 2.21543ZM5.09681 4.94388C3.21168 6.76412 2.26667 8.99206 2.26667 11.6157H2.66667C2.66667 9.10042 3.5677 6.97639 5.37466 5.23163L5.09681 4.94388ZM2.26667 11.6157C2.26667 14.2394 3.21167 16.4678 5.09677 18.2889L5.3747 18.0012C3.56771 16.2555 2.66667 14.131 2.66667 11.6157H2.26667ZM5.09677 18.2889C6.98169 20.1099 9.287 21.0189 12.0002 21.016L11.9998 20.616C9.38607 20.6188 7.18186 19.7471 5.3747 18.0012L5.09677 18.2889ZM12 21.016H15.6667V20.616H12V21.016ZM15.4667 20.816V22.7268H15.8667V20.816H15.4667ZM12.0484 18.9933C12.4006 18.9933 12.7069 18.8746 12.9544 18.6358L12.6766 18.3479C12.5075 18.5111 12.3024 18.5933 12.0484 18.5933V18.9933ZM12.9544 18.6358C13.2021 18.3966 13.3279 18.0977 13.3279 17.7516H12.9279C12.9279 17.9905 12.8453 18.1851 12.6766 18.3479L12.9544 18.6358ZM13.3279 17.7516C13.3279 17.4054 13.2021 17.1065 12.9544 16.8674L12.6766 17.1552C12.8453 17.3181 12.9279 17.5127 12.9279 17.7516H13.3279ZM12.9544 16.8674C12.7071 16.6288 12.401 16.5095 12.049 16.5084L12.0478 16.9084C12.302 16.9092 12.5073 16.9919 12.6766 17.1552L12.9544 16.8674ZM12.0484 16.5084C11.6959 16.5084 11.3895 16.6279 11.1421 16.8677L11.4206 17.1549C11.5897 16.9909 11.7947 16.9084 12.0484 16.9084V16.5084ZM11.1428 16.8671C10.8939 17.1061 10.7675 17.4051 10.7675 17.7516H11.1675C11.1675 17.513 11.2503 17.3185 11.4199 17.1556L11.1428 16.8671ZM10.7675 17.7516C10.7675 18.0977 10.8932 18.3966 11.141 18.6358L11.4188 18.3479C11.25 18.1851 11.1675 17.9905 11.1675 17.7516H10.7675ZM11.1413 18.6361C11.3896 18.8746 11.6962 18.9933 12.0484 18.9933V18.5933C11.7944 18.5933 11.5886 18.5111 11.4184 18.3476L11.1413 18.6361ZM11.4075 14.8532H12.7055V14.4532H11.4075V14.8532ZM12.9051 14.666C12.9411 14.1024 13.0524 13.6769 13.2251 13.3755L12.8781 13.1766C12.6636 13.5507 12.5441 14.0434 12.5059 14.6404L12.9051 14.666ZM13.225 13.3757C13.4027 13.0664 13.8424 12.5653 14.5692 11.8629L14.2913 11.5752C13.5671 12.275 13.0877 12.8118 12.8782 13.1764L13.225 13.3757ZM14.5688 11.8633C15.0021 11.4471 15.349 11.018 15.6064 10.5754L15.2606 10.3743C15.0251 10.7792 14.7032 11.1795 14.2917 11.5748L14.5688 11.8633ZM15.6064 10.5753C15.8716 10.1185 16.0016 9.59807 16.0016 9.01982H15.6016C15.6016 9.53616 15.4862 9.98575 15.2605 10.3745L15.6064 10.5753ZM16.0016 9.01982C16.0016 7.94355 15.6136 7.08086 14.8308 6.45588L14.5812 6.76847C15.2592 7.3098 15.6016 8.05221 15.6016 9.01982H16.0016ZM14.8308 6.45588C14.0611 5.84137 13.1324 5.537 12.0559 5.53602L12.0556 5.93602C13.0519 5.93693 13.8901 6.21667 14.5812 6.76847L14.8308 6.45588ZM12.0557 5.53602C11.1123 5.53602 10.3005 5.78577 9.63196 6.29449L9.87418 6.61281C10.4631 6.16469 11.1864 5.93602 12.0557 5.93602V5.53602ZM9.63219 6.2943C8.97713 6.79123 8.49248 7.38774 8.1842 8.08392L8.54994 8.24588C8.82832 7.61722 9.26768 7.07289 9.87394 6.61299L9.63219 6.2943ZM8.297 8.35222L9.50406 8.80374L9.64421 8.4291L8.43714 7.97757L8.297 8.35222ZM9.75504 8.7017C9.9402 8.30893 10.2119 7.94805 10.5739 7.61942L10.305 7.32326C9.90826 7.68347 9.60309 8.08598 9.39323 8.53114L9.75504 8.7017ZM10.5735 7.61977C10.9056 7.31986 11.3901 7.15612 12.0557 7.15612V6.75612C11.3271 6.75612 10.734 6.93586 10.3054 7.3229L10.5735 7.61977ZM12.0557 7.15612C12.8523 7.15612 13.4009 7.36467 13.7456 7.74327L14.0414 7.474C13.594 6.98258 12.9175 6.75612 12.0557 6.75612V7.15612ZM13.7454 7.74311C14.1131 8.1479 14.2875 8.57702 14.2875 9.03539H14.6875C14.6875 8.46332 14.4658 7.94128 14.0415 7.47416L13.7454 7.74311ZM14.2875 9.03539C14.2875 9.47131 14.1713 9.82699 13.9482 10.1144L14.2641 10.3597C14.5494 9.99231 14.6875 9.54685 14.6875 9.03539H14.2875ZM13.9479 10.1147C13.7022 10.4325 13.3831 10.7814 12.989 11.1618L13.2668 11.4496C13.6705 11.06 14.0036 10.6966 14.2643 10.3594L13.9479 10.1147ZM12.9983 11.1533C12.2856 11.7591 11.7966 12.3195 11.5575 12.8352L11.9204 13.0035C12.1232 12.5661 12.5602 12.0507 13.2574 11.4581L12.9983 11.1533ZM11.5575 12.8352C11.3213 13.3446 11.2075 13.953 11.2075 14.6532H11.6075C11.6075 13.9947 11.7147 13.4471 11.9204 13.0035L11.5575 12.8352Z" fill="black" mask="url(#path-1-outside-1_12_87)"/>
</svg>
