<svg width="32" height="32" viewBox="0 0 32 32" fill="none" xmlns="http://www.w3.org/2000/svg">
<path d="M0 1.33334H6.352L7.07867 4.00001H31.1827L26.2947 18.6667H10.3733L9.70667 21.3333H29.3333V24H6.29333L7.95467 17.348L4.31467 4.00001H0V1.33334ZM10.352 16H24.372L27.484 6.66668H7.80667L10.352 16ZM5.33333 28C5.33333 27.2928 5.61428 26.6145 6.11438 26.1144C6.61448 25.6143 7.29276 25.3333 8 25.3333C8.70724 25.3333 9.38552 25.6143 9.88562 26.1144C10.3857 26.6145 10.6667 27.2928 10.6667 28C10.6667 28.7073 10.3857 29.3855 9.88562 29.8856C9.38552 30.3857 8.70724 30.6667 8 30.6667C7.29276 30.6667 6.61448 30.3857 6.11438 29.8856C5.61428 29.3855 5.33333 28.7073 5.33333 28ZM24 28C24 27.2928 24.281 26.6145 24.781 26.1144C25.2811 25.6143 25.9594 25.3333 26.6667 25.3333C27.3739 25.3333 28.0522 25.6143 28.5523 26.1144C29.0524 26.6145 29.3333 27.2928 29.3333 28C29.3333 28.7073 29.0524 29.3855 28.5523 29.8856C28.0522 30.3857 27.3739 30.6667 26.6667 30.6667C25.9594 30.6667 25.2811 30.3857 24.781 29.8856C24.281 29.3855 24 28.7073 24 28Z" fill="black"/>
</svg>
